<svg width="44" height="7" viewBox="0 0 44 7" fill="none" xmlns="http://www.w3.org/2000/svg">
<path fill-rule="evenodd" clip-rule="evenodd" d="M0.384487 2.8655L2.09115 4.09683L1.43949 6.0895C1.36449 6.31883 1.62882 6.50983 1.82515 6.36817L3.53115 5.1365L5.23782 6.36817C5.43349 6.50983 5.69815 6.31883 5.62282 6.0895L4.97149 4.09683L6.67749 2.8655C6.87382 2.72383 6.77282 2.41483 6.53015 2.41483H4.42115L4.36582 2.24583L3.76949 0.4225C3.69449 0.1925 3.36782 0.1925 3.29282 0.4225L2.64115 2.4145H0.532154C0.289487 2.4145 0.188821 2.7235 0.384821 2.86517L0.384487 2.8655Z" fill="#111111" stroke="#111111" stroke-width="0.5"/>
<path fill-rule="evenodd" clip-rule="evenodd" d="M9.38449 2.8655L11.0912 4.09683L10.4395 6.0895C10.3645 6.31883 10.6288 6.50983 10.8252 6.36817L12.5312 5.1365L14.2378 6.36817C14.4335 6.50983 14.6982 6.31883 14.6228 6.0895L13.9715 4.09683L15.6775 2.8655C15.8738 2.72383 15.7728 2.41483 15.5302 2.41483H13.4212L13.3658 2.24583L12.7695 0.4225C12.6945 0.1925 12.3678 0.1925 12.2928 0.4225L11.6412 2.4145H9.53215C9.28949 2.4145 9.18882 2.7235 9.38482 2.86517L9.38449 2.8655Z" fill="#111111" stroke="#111111" stroke-width="0.5"/>
<path fill-rule="evenodd" clip-rule="evenodd" d="M18.3845 2.8655L20.0912 4.09683L19.4395 6.0895C19.3645 6.31883 19.6288 6.50983 19.8252 6.36817L21.5312 5.1365L23.2378 6.36817C23.4335 6.50983 23.6982 6.31883 23.6228 6.0895L22.9715 4.09683L24.6775 2.8655C24.8738 2.72383 24.7728 2.41483 24.5302 2.41483H22.4212L22.3658 2.24583L21.7695 0.4225C21.6945 0.1925 21.3678 0.1925 21.2928 0.4225L20.6412 2.4145H18.5322C18.2895 2.4145 18.1888 2.7235 18.3848 2.86517L18.3845 2.8655Z" fill="#111111" stroke="#111111" stroke-width="0.5"/>
<path fill-rule="evenodd" clip-rule="evenodd" d="M27.3845 2.8655L29.0912 4.09683L28.4395 6.0895C28.3645 6.31883 28.6288 6.50983 28.8252 6.36817L30.5312 5.1365L32.2378 6.36817C32.4335 6.50983 32.6982 6.31883 32.6228 6.0895L31.9715 4.09683L33.6775 2.8655C33.8738 2.72383 33.7728 2.41483 33.5302 2.41483H31.4212L31.3658 2.24583L30.7695 0.4225C30.6945 0.1925 30.3678 0.1925 30.2928 0.4225L29.6412 2.4145H27.5322C27.2895 2.4145 27.1888 2.7235 27.3848 2.86517L27.3845 2.8655Z" fill="#111111" stroke="#111111" stroke-width="0.5"/>
<path fill-rule="evenodd" clip-rule="evenodd" d="M36.3845 2.8655L38.0912 4.09683L37.4395 6.0895C37.3645 6.31883 37.6288 6.50983 37.8252 6.36817L39.5312 5.1365L41.2378 6.36817C41.4335 6.50983 41.6982 6.31883 41.6228 6.0895L40.9715 4.09683L42.6775 2.8655C42.8738 2.72383 42.7728 2.41483 42.5302 2.41483H40.4212L40.3658 2.24583L39.7695 0.4225C39.6945 0.1925 39.3678 0.1925 39.2928 0.4225L38.6412 2.4145H36.5322C36.2895 2.4145 36.1888 2.7235 36.3848 2.86517L36.3845 2.8655Z" fill="#111111" stroke="#111111" stroke-width="0.5"/>
</svg>
